<svg height="511pt" viewBox="0 -26 511.997 511" width="511pt" xmlns="http://www.w3.org/2000/svg"><path d="m504.5 424.558594h-184.203125v-81.398438c0-24.121094 19.550781-43.675781 43.671875-43.675781h96.855469c24.121093 0 43.675781 19.554687 43.675781 43.675781zm0 0" fill="#eb5777"/><path d="m413.445312 324.078125c-8.222656 0-14.886718-6.667969-14.886718-14.886719v-41.761718h29.769531v41.761718c.003906 8.21875-6.664063 14.886719-14.882813 14.886719zm0 0" fill="#e39f6e"/><path d="m334.6875 209.195312h157.511719l4.15625-20.265624c10.757812-52.480469-29.335938-101.628907-82.910157-101.628907-53.578124 0-93.671874 49.148438-82.914062 101.628907zm0 0" fill="#ba6f3c"/><path d="m500.984375 217.128906c0 11.066406-8.972656 20.042969-20.042969 20.042969-11.066406 0-20.042968-8.976563-20.042968-20.042969 0-11.070312 8.976562-20.042968 20.042968-20.042968 11.070313 0 20.042969 8.972656 20.042969 20.042968zm0 0" fill="#e39f6e"/><path d="m365.984375 217.128906c0 11.066406-8.964844 20.042969-20.042969 20.042969-11.066406 0-20.042968-8.976563-20.042968-20.042969 0-1.691406.203124-3.339844.613281-4.90625 2.183593-8.691406 10.054687-15.136718 19.429687-15.136718 9.5 0 17.453125 6.609374 19.511719 15.472656.347656 1.464844.53125 3.003906.53125 4.570312zm0 0" fill="#e39f6e"/><path d="m365.453125 212.558594c-5.65625 3.246094-12.207031 5.101562-19.183594 5.101562-7.214843 0-13.964843-1.988281-19.757812-5.441406 2.183593-8.6875 10.054687-15.132812 19.429687-15.132812 9.5 0 17.453125 6.609374 19.511719 15.472656zm0 0" fill="#d88852"/><path d="m350.359375 161.070312 6.875 55.003907 2.601563 20.863281c3.382812 27.03125 26.367187 47.324219 53.605468 47.324219 27.246094 0 50.234375-20.292969 53.605469-47.324219l9.476563-75.867188zm0 0" fill="#f8c298"/><path d="m384.964844 178.96875c0 17.53125-11.722656 32.371094-27.730469 37.105469l-7.367187-58.964844h28.324218c4.273438 6.230469 6.773438 13.753906 6.773438 21.859375zm0 0" fill="#e39f6e"/><path d="m338.574219 162.628906s13.449219 13.339844 49.664062 14.300782c2.289063.0625 4.167969-1.78125 4.167969-4.070313v-5.375s13.167969 8.640625 41.070312 9.441406c2.292969.066407 4.171876-1.78125 4.171876-4.074219v-3.046874s10.847656 6.625 43.375 7.148437c2.265624.035156 4.125-1.804687 4.125-4.074219v-19.773437c0-2.585938-2.097657-4.6875-4.6875-4.6875h-127.679688c-7.847656.003906-14.207031 6.363281-14.207031 14.210937zm0 0" fill="#ba6f3c"/><path d="m191.703125 424.558594h-184.203125v-81.398438c0-24.121094 19.554688-43.675781 43.675781-43.675781h96.855469c24.121094 0 43.671875 19.554687 43.671875 43.675781zm0 0" fill="#4fceb7"/><path d="m100.648438 324.078125c-8.222657 0-14.886719-6.667969-14.886719-14.886719v-41.761718h29.773437v41.761718c0 8.21875-6.664062 14.886719-14.886718 14.886719zm0 0" fill="#e39f6e"/><path d="m21.890625 209.195312h157.515625l4.152344-20.265624c10.761718-52.480469-29.335938-101.628907-82.910156-101.628907-53.574219 0-93.667969 49.148438-82.910157 101.628907zm0 0" fill="#ba6f3c"/><path d="m188.191406 217.128906c0 11.066406-8.976562 20.042969-20.042968 20.042969-11.066407 0-20.042969-8.976563-20.042969-20.042969 0-1.691406.203125-3.339844.613281-4.90625 2.183594-8.691406 10.054688-15.136718 19.429688-15.136718 9.5 0 17.460937 6.609374 19.511718 15.484374.347656 1.464844.53125 2.992188.53125 4.558594zm0 0" fill="#e39f6e"/><path d="m187.660156 212.570312c-5.65625 3.238282-12.207031 5.09375-19.171875 5.09375-7.214843 0-13.976562-1.988281-19.769531-5.441406 2.183594-8.691406 10.054688-15.136718 19.429688-15.136718 9.5 0 17.460937 6.609374 19.511718 15.484374zm0 0" fill="#d88852"/><path d="m53.191406 217.128906c0 11.066406-8.972656 20.042969-20.042968 20.042969-11.070313 0-20.042969-8.976563-20.042969-20.042969 0-11.070312 8.972656-20.042968 20.042969-20.042968 11.070312 0 20.042968 8.972656 20.042968 20.042968zm0 0" fill="#e39f6e"/><path d="m37.566406 161.070312 9.476563 75.867188c3.382812 27.03125 26.355469 47.324219 53.605469 47.324219 27.246093 0 50.222656-20.292969 53.605468-47.324219l2.632813-21.046875 6.84375-54.820313zm0 0" fill="#f8c298"/><path d="m134.199219 161.070312c-2.808594 5.355469-4.40625 11.441407-4.40625 17.898438 0 17.296875 11.40625 31.980469 27.09375 36.917969l6.84375-54.816407zm0 0" fill="#e39f6e"/><path d="m25.777344 162.628906s13.449218 13.339844 49.664062 14.300782c2.292969.0625 4.171875-1.78125 4.171875-4.070313v-5.375s13.167969 8.640625 41.070313 9.441406c2.289062.066407 4.167968-1.78125 4.167968-4.074219v-3.046874s10.851563 6.625 43.375 7.148437c2.269532.035156 4.125-1.804687 4.125-4.074219v-19.773437c0-2.585938-2.097656-4.6875-4.6875-4.6875h-127.679687c-7.847656.003906-14.207031 6.363281-14.207031 14.210937zm0 0" fill="#ba6f3c"/><path d="m377.292969 452.140625h-242.585938v-107.195313c0-31.765624 25.75-57.515624 57.515625-57.515624h127.554688c31.761718 0 57.515625 25.75 57.515625 57.515624zm0 0" fill="#a9d2f7"/><path d="m181.558594 315.5625v24.890625h15.109375l-8.519531 29.332031 26.433593 35.421875v-117.777343zm0 0" fill="#5f9eeb"/><path d="m333.195312 315.5625v24.890625h-15.109374l8.519531 29.332031-26.433594 35.421875v-117.777343zm0 0" fill="#5f9eeb"/><path d="m214.582031 287.429688h85.589844v164.710937h-85.589844zm0 0" fill="#627687"/><path d="m377.289062 344.945312v107.195313h-19.597656v-107.195313c0-31.761718-25.757812-57.515624-57.519531-57.515624h19.609375c31.761719 0 57.507812 25.753906 57.507812 57.515624zm0 0" fill="#7fb7ea"/><path d="m257.378906 319.816406c-10.828125 0-19.605468-8.777344-19.605468-19.605468v-54.996094h39.207031v54.996094c.003906 10.828124-8.777344 19.605468-19.601563 19.605468zm0 0" fill="#f8c298"/><path d="m153.660156 168.523438h207.4375l5.46875-26.6875c14.167969-69.117188-38.632812-133.839844-109.1875-133.839844-70.554687 0-123.355468 64.726562-109.1875 133.839844zm0 0" fill="#ffcf64"/><path d="m372.664062 178.96875c0 14.578125-11.816406 26.398438-26.394531 26.398438s-26.394531-11.820313-26.394531-26.398438 11.816406-26.394531 26.394531-26.394531 26.394531 11.816406 26.394531 26.394531zm0 0" fill="#f8c298"/><path d="m194.882812 178.96875c0 14.578125-11.820312 26.398438-26.398437 26.398438s-26.394531-11.820313-26.394531-26.398438 11.816406-26.394531 26.394531-26.394531 26.398437 11.816406 26.398437 26.394531zm0 0" fill="#f8c298"/><path d="m178.636719 139.804688 8.148437 65.25c4.449219 35.601562 34.710938 62.320312 70.59375 62.320312 35.878906 0 66.144532-26.71875 70.589844-62.320312l8.152344-65.25c2.4375-19.507813-12.773438-36.734376-32.433594-36.734376h-92.621094c-19.65625 0-34.867187 17.226563-32.429687 36.734376zm0 0" fill="#ffd6c0"/><path d="m167.539062 91.898438v35.335937c0 3.417969 2.78125 6.175781 6.199219 6.148437 16.097657-.136718 54.972657-2.945312 84.273438-25.054687 29.300781 22.109375 68.171875 24.917969 84.273437 25.054687 3.417969.027344 6.199219-2.730468 6.199219-6.148437v-35.335937zm0 0" fill="#ffcf64"/><path d="m460.824219 291.984375h-24.992188v-4.460937c18.714844-7.34375 33.140625-23.625 37.65625-43.890626 2.402344.671876 4.898438 1.039063 7.457031 1.039063 15.1875 0 27.542969-12.355469 27.542969-27.542969 0-6.808594-2.488281-13.042968-6.597656-17.855468l1.8125-8.835938c5.160156-25.175781-.148437-50.589844-14.941406-71.5625-2.390625-3.386719-7.070313-4.191406-10.453125-1.804688-3.382813 2.386719-4.191406 7.066407-1.804688 10.453126 12.382813 17.550781 16.824219 38.824218 12.503906 59.902343l-.652343 3.179688c-2.359375-.660157-4.84375-1.023438-7.414063-1.023438-.140625 0-.28125.007813-.421875.011719l.742188-5.945312c2.453125-1.175782 4.183593-3.640626 4.265625-6.546876.121094-4.140624-3.140625-7.59375-7.28125-7.710937-25.855469-.742187-35.859375-5.566406-36.757813-6.027344-2.289062-1.496093-5.089843-1.542969-7.507812-.25-2.285157 1.222657-3.652344 3.597657-3.816407 6.167969-22.621093-1.269531-33.582031-8.027344-33.640624-8.066406-2.304688-1.511719-5.253907-1.636719-7.679688-.328125-2.425781 1.308593-3.9375 3.84375-3.9375 6.601562v1.808594c-2.144531-.113281-4.246094-.277344-6.300781-.488281-1.5-4.761719-4.023438-9.074219-7.3125-12.675782l2.621093-12.785156c2.640626-12.882812 3.113282-25.894531 1.546876-38.578125 11.507812-6.523437 24.5625-9.96875 37.984374-9.96875 14.828126 0 29.191407 4.191407 41.542969 12.113281 1.253907.804688 2.65625 1.1875 4.042969 1.1875 2.472656 0 4.890625-1.214843 6.320312-3.449218 2.238282-3.484375 1.222657-8.125-2.261718-10.363282-14.773438-9.476562-31.941406-14.488281-49.648438-14.488281-14.320312 0-28.300781 3.285157-40.9375 9.554688-4.257812-16.273438-11.984375-31.65625-22.949218-45.097657-22.691407-27.808593-56.285157-43.757812-92.175782-43.757812-26.238281 0-51.078125 8.335938-71.835937 24.109375-3.296875 2.503906-3.941407 7.210937-1.433594 10.507813 2.507813 3.300781 7.210937 3.9375 10.507813 1.433593 18.125-13.773437 39.828124-21.054687 62.761718-21.054687 31.363282 0 60.722656 13.941406 80.550782 38.246094 19.828124 24.300781 27.585937 55.863281 21.289062 86.589843l-1.390625 6.777344c-3.609375-1.316406-7.5-2.035156-11.558594-2.035156-1.097656 0-2.1875.054687-3.269531.160156l.550781-4.410156c3.164063-.277344 6.105469-1.628907 8.390625-3.894531 2.605469-2.582032 4.039063-6.027344 4.039063-9.695313v-17.460937c0-4.140626-3.355469-7.5-7.5-7.5-4.140625 0-7.5 3.359374-7.5 7.5v16.09375c-15.613281-.277344-51.613281-3.269532-78.453125-23.527344-2.675782-2.015625-6.363282-2.015625-9.035156 0-26.839844 20.257812-62.839844 23.25-78.457032 23.527344v-16.09375c0-4.140626-3.355468-7.5-7.5-7.5-4.140625 0-7.5 3.359374-7.5 7.5v17.460937c0 3.667969 1.4375 7.113281 4.039063 9.695313 1.976562 1.957031 4.433593 3.234374 7.109375 3.726562.003906.023438.003906.050781.007812.078125l.5625 4.496094c-1.082031-.101563-2.171875-.152344-3.269531-.152344-4.058594 0-7.949219.71875-11.558594 2.03125l-1.390625-6.773437c-5.941406-28.992188.363282-58.117188 17.753906-82.007813 2.441407-3.351563 1.699219-8.039063-1.648437-10.480469-3.347656-2.4375-8.039063-1.695312-10.476563 1.652344-8.984374 12.339844-15.375 25.902344-19.066406 40.117188-12.769531-6.4375-26.933594-9.816407-41.449218-9.816407-27.800782 0-53.820313 12.355469-71.394532 33.894531-17.570312 21.542969-24.445312 49.511719-18.863281 76.746094l1.808594 8.835938c-4.105469 4.808594-6.59375 11.042968-6.59375 17.851562 0 15.1875 12.355469 27.542969 27.542969 27.542969 2.550781 0 5.050781-.363281 7.453124-1.039063 4.515626 20.269532 18.945313 36.546876 37.660157 43.894532v4.460937h-27.085938c-28.21875-.003906-51.175781 22.953125-51.175781 51.171875v81.398438c0 4.140625 3.359375 7.5 7.5 7.5s7.5-3.359375 7.5-7.5v-81.398438c0-19.949218 16.226562-36.175781 36.175781-36.175781h27.085938v2.207031c0 12.34375 10.042969 22.386719 22.386719 22.386719s22.386718-10.042969 22.386718-22.386719v-2.207031h16.453125c-7.714843 10.691406-12.28125 23.800781-12.28125 37.960937v107.195313c0 4.144531 3.359375 7.5 7.5 7.5s7.5-3.355469 7.5-7.5v-107.195313c0-27.578124 22.4375-50.015624 50.015625-50.015624h1.988282l-17.515626 14.921874c-1.675781 1.425782-2.636718 3.511719-2.636718 5.707032v24.894531c0 4.140625 3.355468 7.5 7.5 7.5h5.121094l-5.734376 19.742187c-.65625 2.257813-.214843 4.691407 1.191407 6.578126l24.945312 33.425781v44.441406c0 4.144531 3.355469 7.5 7.5 7.5 4.140625 0 7.5-3.355469 7.5-7.5v-157.210937h8.1875v5.28125c0 14.945312 12.160157 27.101562 27.105469 27.101562s27.105469-12.15625 27.105469-27.101562v-5.28125h8.191406v157.210937c0 4.144531 3.355469 7.5 7.5 7.5 4.140625 0 7.5-3.355469 7.5-7.5v-44.441406l24.941406-33.425781c1.40625-1.886719 1.851563-4.320313 1.191407-6.578126l-5.734376-19.742187h5.125c4.140626 0 7.5-3.359375 7.5-7.5v-24.890625c0-2.199219-.964843-4.285156-2.636718-5.710938l-17.496094-14.902343c27.214844.425781 49.226562 22.683593 49.226562 49.996093v28.125c0 4.140626 3.359376 7.5 7.5 7.5 4.140626 0 7.5-3.359374 7.5-7.5v-28.125c0-14.160156-4.566406-27.269531-12.28125-37.960937h18.546876v2.207031c0 12.34375 10.042968 22.386719 22.386718 22.386719s22.386719-10.042969 22.386719-22.386719v-2.207031h24.996094c19.945312 0 36.171875 16.230469 36.171875 36.175781v81.398438c0 4.140625 3.359375 7.5 7.5 7.5 4.144531 0 7.5-3.359375 7.5-7.5v-81.398438c.003906-28.21875-22.953125-51.175781-51.171875-51.175781zm20.117187-87.402344c6.917969 0 12.542969 5.628907 12.542969 12.542969 0 6.917969-5.625 12.542969-12.542969 12.542969-1.851562 0-3.640625-.40625-5.28125-1.171875l2.957032-23.691406c.761718-.140626 1.539062-.222657 2.324218-.222657zm-92.941406-20.15625c.101562.003907.203125.003907.308594.003907 3.007812 0 5.945312-1.1875 8.101562-3.285157.832032-.8125 1.527344-1.722656 2.070313-2.707031 7.433593 2.652344 18.964843 5.527344 34.742187 5.984375 3.097656.082031 6.183594-1.101563 8.417969-3.273437.441406-.429688.84375-.886719 1.207031-1.367188 5.140625 1.480469 12.695313 3.050781 23.285156 3.953125l-6.527343 52.269531c-2.902344 23.230469-22.746094 40.753906-46.160157 40.753906-23.414062 0-43.261718-17.523437-46.164062-40.753906l-3.5-28.027344c8.453125-5.117187 14.496094-13.828124 16.011719-23.996093 2.683593.21875 5.421875.371093 8.207031.445312zm-54.550781 31.703125c.324219-1.234375.617187-2.484375.878906-3.746094.203125-.492187.441406-.964843.707031-1.429687 3.570313 1.253906 7.347656 1.914063 11.234375 1.914063 1.007813 0 2.003907-.054688 2.988281-.140626l1.972657 15.773438c-1.644531.765625-3.433594 1.171875-5.285157 1.171875-6.917968 0-12.542968-5.628906-12.542968-12.542969 0-.335937.023437-.667968.046875-1zm12.820312-56.054687c10.417969 0 18.894531 8.476562 18.894531 18.894531s-8.476562 18.898438-18.894531 18.898438c-3.398437 0-6.644531-.898438-9.519531-2.585938l4.304688-34.464844c1.683593-.484375 3.429687-.742187 5.214843-.742187zm-88.257812-42.539063c23.632812 15.929688 51.773437 21.097656 70.496093 22.6875l-7.980468 63.902344c-3.96875 31.78125-31.117188 55.75-63.148438 55.75s-59.179687-23.96875-63.148437-55.75l-7.96875-63.800781c18.703125-1.460938 47.585937-6.5 71.75-22.789063zm-93.167969 95.132813c1.195312.128906 2.410156.199219 3.640625.199219 3.652344 0 7.257813-.601563 10.679687-1.738282.996094 1.820313 1.527344 3.867188 1.527344 5.996094 0 6.917969-5.625 12.542969-12.542968 12.542969-1.863282 0-3.648438-.398438-5.285157-1.164063zm8.855469-51.859375 4.308593 34.480468c-2.871093 1.6875-6.109374 2.578126-9.523437 2.578126-10.417969 0-18.894531-8.480469-18.894531-18.898438s8.476562-18.894531 18.894531-18.894531c1.785156 0 3.53125.25 5.214844.734375zm-132.820313-37.632813c14.710938-18.035156 36.496094-28.375 59.769532-28.375 13.636718 0 26.890624 3.546875 38.535156 10.277344-1.496094 12.542969-.976563 25.414063 1.660156 38.265625l2.621094 12.785156c-2.664063 2.917969-4.820313 6.300782-6.34375 10.011719-5.421875-1.304687-7.992188-2.554687-8.425782-2.777344-2.289062-1.496093-5.089843-1.542969-7.507812-.25-2.285156 1.222657-3.652344 3.597657-3.816406 6.167969-22.625-1.273438-33.582032-8.027344-33.644532-8.066406-2.300781-1.511719-5.25-1.636719-7.675781-.328125-2.425781 1.308593-3.9375 3.84375-3.9375 6.601562v1.808594c-16.421875-.855469-27.191406-4.425781-33.457031-7.375-3.746094-1.765625-8.214844-.160156-9.980469 3.589844-1.683593 3.578125-.289062 7.808593 3.105469 9.722656l1.792969 14.359375c-.140625 0-.28125-.007812-.421875-.007812-2.570313 0-5.054688.359374-7.414063 1.019531l-.652343-3.179688c-4.675782-22.800781 1.082031-46.21875 15.792968-64.25zm-20.273437 93.953125c0-6.917968 5.628906-12.542968 12.542969-12.542968.789062 0 1.5625.074218 2.324218.214843l2.960938 23.699219c-1.644532.765625-3.433594 1.171875-5.285156 1.171875-6.914063 0-12.542969-5.628906-12.542969-12.542969zm33.882812 18.875-6.890625-55.160156c7.332032 1.84375 16.46875 3.285156 27.609375 3.582031.101563.003907.203125.003907.308594.003907 3.007813 0 5.945313-1.1875 8.101563-3.285157.832031-.808593 1.523437-1.722656 2.070312-2.707031 7.429688 2.652344 18.964844 5.527344 34.742188 5.984375 3.101562.082031 6.183593-1.101563 8.417968-3.273437.4375-.425782.835938-.878907 1.199219-1.359376 1.359375.394532 2.894531.792969 4.609375 1.183594.65625 11.191406 6.765625 20.933594 15.703125 26.617188l-3.546875 28.414062c-2.902344 23.234375-22.746094 40.753906-46.160156 40.753906-23.414063 0-43.261719-17.519531-46.164063-40.753906zm46.160157 80.574219c-4.074219 0-7.386719-3.316406-7.386719-7.386719v-17.894531c2.425781.292969 4.890625.460937 7.386719.460937 2.496093 0 4.960937-.164062 7.386718-.460937v17.894531c0 4.070313-3.3125 7.386719-7.386718 7.386719zm95.746093 51.714844 7.476563-25.746094c.660156-2.265625.214844-4.710937-1.203125-6.597656s-3.640625-2.996094-6-2.996094h-7.609375v-13.925781l18.023437-15.355469v78.945313zm-4.171875-88.363281c-14.242187 0-27.425781 4.617187-38.148437 12.417968-2-.234375-4.027344-.363281-6.042969-.363281h-24.996094v-4.460937c18.71875-7.34375 33.148438-23.632813 37.660156-43.902344 2.414063.679687 4.921876 1.050781 7.453126 1.050781 8.34375 0 15.828124-3.730469 20.878906-9.609375 9.171875 16.089844 23.816406 28.539062 41.246094 34.96875v9.898438zm65.15625 32.386718c-6.675781 0-12.105468-5.433594-12.105468-12.105468v-26.289063c3.957031.617187 7.996093.953125 12.105468.953125s8.148438-.335938 12.105469-.953125v26.289063c0 6.671874-5.429687 12.105468-12.105469 12.105468zm68.316406 20.636719h-7.609374c-2.359376 0-4.578126 1.109375-5.996094 2.996094-1.417969 1.886719-1.863282 4.332031-1.207032 6.597656l7.480469 25.746094-10.691406 14.324219v-78.945313l18.023437 15.355469zm38.273438-40.96875c-2.019531 0-4.042969.128906-6.042969.363281-10.722656-7.800781-23.902343-12.417968-38.148437-12.417968h-35.292969v-9.902344c17.269531-6.367188 31.804687-18.644532 40.992187-34.523438 5.046876 5.617188 12.34375 9.164063 20.46875 9.164063 2.554688 0 5.050782-.363281 7.457032-1.039063 4.515625 20.269532 18.941406 36.550782 37.65625 43.894532v4.460937zm49.476562 24.59375c-4.074218 0-7.386718-3.316406-7.386718-7.386719v-17.894531c2.425781.292969 4.886718.460937 7.386718.460937 2.496094 0 4.957032-.164062 7.386719-.460937v17.894531c0 4.070313-3.316406 7.386719-7.386719 7.386719zm0 0"/><path d="m376.519531 213.007812.089844 3.175782c.109375 4.070312 3.445313 7.296875 7.492187 7.296875.070313 0 .136719-.003907.207032-.003907 4.140625-.113281 7.40625-3.5625 7.292968-7.703124l-.085937-3.175782c-.113281-4.140625-3.558594-7.421875-7.703125-7.292968-4.140625.113281-7.40625 3.5625-7.292969 7.703124zm0 0"/><path d="m442.867188 223.480469c.066406 0 .136718-.003907.207031-.003907 4.140625-.113281 7.40625-3.5625 7.292969-7.703124l-.085938-3.175782c-.113281-4.140625-3.558594-7.421875-7.703125-7.292968-4.140625.113281-7.40625 3.5625-7.292969 7.703124l.085938 3.175782c.113281 4.070312 3.445312 7.296875 7.496094 7.296875zm0 0"/><path d="m389.507812 239.402344c5.546876 7.660156 14.496094 12.234375 23.9375 12.234375 9.441407 0 18.390626-4.574219 23.9375-12.234375 2.425782-3.355469 1.675782-8.042969-1.679687-10.472656-3.351563-2.429688-8.042969-1.679688-10.472656 1.675781-2.734375 3.777343-7.140625 6.03125-11.785157 6.03125-4.648437 0-9.054687-2.253907-11.789062-6.03125-2.429688-3.355469-7.117188-4.105469-10.472656-1.675781-3.355469 2.429687-4.105469 7.117187-1.675782 10.472656zm0 0"/><path d="m468.925781 348.882812c-4.144531 0-7.5 3.355469-7.5 7.5v68.175782c0 4.140625 3.355469 7.5 7.5 7.5 4.140625 0 7.5-3.359375 7.5-7.5v-68.175782c0-4.144531-3.359375-7.5-7.5-7.5zm0 0"/><path d="m78.808594 215.773438-.089844-3.175782c-.113281-4.140625-3.542969-7.421875-7.699219-7.292968-4.140625.113281-7.40625 3.5625-7.292969 7.703124l.085938 3.175782c.113281 4.070312 3.445312 7.296875 7.492188 7.296875.070312 0 .140624-.003907.210937-.003907 4.140625-.113281 7.40625-3.5625 7.292969-7.703124zm0 0"/><path d="m130.070312 223.480469c.070313 0 .140626-.003907.207032-.003907 4.144531-.113281 7.40625-3.5625 7.292968-7.703124l-.085937-3.175782c-.113281-4.140625-3.542969-7.421875-7.703125-7.292968-4.140625.113281-7.402344 3.5625-7.292969 7.703124l.089844 3.175782c.109375 4.070312 3.445313 7.296875 7.492187 7.296875zm0 0"/><path d="m124.585938 239.402344c2.429687-3.355469 1.679687-8.042969-1.675782-10.472656-3.355468-2.429688-8.046875-1.679688-10.476562 1.675781-2.734375 3.777343-7.140625 6.03125-11.785156 6.03125-4.644532 0-9.054688-2.253907-11.789063-6.03125-2.425781-3.355469-7.117187-4.105469-10.472656-1.675781-3.355469 2.429687-4.105469 7.117187-1.675781 10.472656 5.546874 7.660156 14.496093 12.234375 23.9375 12.234375 9.441406 0 18.390624-4.574219 23.9375-12.234375zm0 0"/><path d="m43.074219 348.882812c-4.140625 0-7.5 3.355469-7.5 7.5v68.175782c0 4.140625 3.359375 7.5 7.5 7.5 4.144531 0 7.5-3.359375 7.5-7.5v-68.175782c0-4.144531-3.355469-7.5-7.5-7.5zm0 0"/><path d="m377.292969 397.570312c-4.144531 0-7.5 3.355469-7.5 7.5v47.070313c0 4.144531 3.355469 7.5 7.5 7.5 4.140625 0 7.5-3.355469 7.5-7.5v-47.070313c0-4.144531-3.359375-7.5-7.5-7.5zm0 0"/><path d="m218.738281 184.957031h.207031c4.140626-.113281 7.40625-3.5625 7.292969-7.703125l-.113281-4.183594c-.113281-4.144531-3.589844-7.414062-7.703125-7.292968-4.140625.113281-7.40625 3.5625-7.292969 7.703125l.113282 4.183593c.113281 4.070313 3.449218 7.292969 7.496093 7.292969zm0 0"/><path d="m296.125 184.957031h.210938c4.140624-.113281 7.402343-3.5625 7.289062-7.703125l-.113281-4.183594c-.113281-4.144531-3.597657-7.414062-7.703125-7.292968-4.140625.113281-7.40625 3.5625-7.292969 7.703125l.117187 4.183593c.109376 4.070313 3.445313 7.292969 7.492188 7.292969zm0 0"/><path d="m257.378906 222.039062c11.671875 0 22.738282-5.65625 29.597656-15.128906 2.425782-3.355468 1.675782-8.042968-1.675781-10.472656-3.355469-2.429688-8.046875-1.679688-10.476562 1.675781-4.042969 5.589844-10.566407 8.925781-17.445313 8.925781s-13.402344-3.335937-17.449218-8.925781c-2.429688-3.355469-7.117188-4.105469-10.472657-1.675781s-4.105469 7.117188-1.675781 10.472656c6.859375 9.472656 17.921875 15.128906 29.597656 15.128906zm0 0"/><path d="m181.558594 385.328125c-4.140625 0-7.5 3.355469-7.5 7.5v59.3125c0 4.144531 3.359375 7.5 7.5 7.5s7.5-3.355469 7.5-7.5v-59.3125c0-4.144531-3.359375-7.5-7.5-7.5zm0 0"/><path d="m330.441406 385.328125c-4.140625 0-7.5 3.355469-7.5 7.5v59.3125c0 4.144531 3.359375 7.5 7.5 7.5s7.5-3.355469 7.5-7.5v-59.3125c0-4.144531-3.359375-7.5-7.5-7.5zm0 0"/></svg>